<?xml version="1.0" encoding="utf-8"?>
<!-- Generator: Adobe Illustrator 24.1.0, SVG Export Plug-In . SVG Version: 6.00 Build 0)  -->
<svg version="1.1" id="Layer_1" xmlns="http://www.w3.org/2000/svg" xmlns:xlink="http://www.w3.org/1999/xlink" x="0px" y="0px"
	 viewBox="0 0 1009.4 1000" style="enable-background:new 0 0 1009.4 1000;" xml:space="preserve">
<path id="XMLID_34_" d="M642.6,171.4c-33.1,39.3-86.3,70.2-139.2,65.7c-6.5-53.2,19.2-109.5,49.8-144.3
	c33.1-40.5,91.1-69.1,138.1-71.3C696.7,76.9,675.2,131.2,642.6,171.4 M690.7,247.8c-76.7-4.5-142.6,43.6-179.2,43.6
	c-37.1,0-92.8-41.3-153.7-40.5c-79,1.1-152.5,45.8-193,117.2c-82.9,142.6-21.5,353.8,58.6,469.8c39.3,57.7,86.3,120.8,148.3,118.6
	c58.6-2.3,81.8-38.2,152.5-38.2c71.3,0,91.7,38.2,153.7,37.1c64.2-1.1,104.4-57.5,143.8-114.9c44.7-65.1,63.1-128.8,64.2-132.2
	c-1.1-1.1-124-48.1-124.8-189.6c-1.1-118.3,96.8-174.6,101-178C806.8,258.9,720.4,250.1,690.7,247.8"/>
</svg>
