<?xml version="1.0" encoding="utf-8"?>
<!-- Generator: Adobe Illustrator 24.1.2, SVG Export Plug-In . SVG Version: 6.00 Build 0)  -->
<svg version="1.1" id="Layer_1" xmlns="http://www.w3.org/2000/svg" xmlns:xlink="http://www.w3.org/1999/xlink" x="0px" y="0px"
	 viewBox="0 0 1009.4 1000" style="enable-background:new 0 0 1009.4 1000;" xml:space="preserve">
<style type="text/css">
	.st0{fill:#FFFFFF;}
	.st1{fill:#E5300B;}
</style>
<path d="M940.4,733.9H71.8c-27.5,0-49.7-22.3-49.7-49.7V275.9c0-27.5,22.3-49.7,49.7-49.7H939c28.2,0,51.1,22.9,51.1,51.1v406.8
	C990.1,711.6,967.9,733.9,940.4,733.9z"/>
<rect x="418.5" y="300.9" class="st0" width="66.1" height="366.4"/>
<rect x="541.5" y="427.5" class="st0" width="66.1" height="239.8"/>
<polygon class="st0" points="901.2,667.3 800.7,540.3 889.3,427.5 814.6,427.5 730.6,533 730.6,300.9 664.5,300.9 664.5,667.3 
	730.6,667.3 730.6,548.6 814.6,667.3 "/>
<path class="st0" d="M252.5,424.4c-20.8,0-40.4,5.2-57.5,14.3V300.9h-65.5v246.5c0,67.9,55.1,123,123,123s123-55.1,123-123
	S320.4,424.4,252.5,424.4z M252.5,604.9c-31.8,0-57.5-25.8-57.5-57.5s25.8-57.5,57.5-57.5s57.5,25.8,57.5,57.5
	S284.3,604.9,252.5,604.9z"/>
<circle class="st1" cx="316" cy="340.6" r="59.5"/>
</svg>
