<svg id="Layer_1" data-name="Layer 1" xmlns="http://www.w3.org/2000/svg" viewBox="0 0 1000 1000"><defs><style>.cls-1{fill:#e6e6e6;}.cls-2{fill:#fff;}.cls-3{fill:#f8a50b;}</style></defs><title>DaoPay Phone</title><path class="cls-1" d="M345.06,954.45a50.9,50.9,0,0,1-50.66-45.57L274.59,722.46C193.73,693.85,125.37,650.4,76.94,596.67,26.6,540.92,0,476.38,0,410c0-47.37,13.25-93.36,39.53-136.6,25.22-41.65,61.36-79.06,107.35-111.17C241.1,96.24,366.47,60,499.89,60s258.8,36.24,353.23,102.16c46,32.11,82.13,69.52,107.35,111.17,26.18,43.24,39.53,89.23,39.53,136.61,0,89.65-48.33,175-136.18,240.14-86.8,64.43-203.9,103.12-329.91,109L384,936.32A50.51,50.51,0,0,1,345.06,954.45Z"/><path class="cls-2" d="M499.89,66C367.74,66,243.54,102,150.17,167.14,104.92,198.72,69.31,235.6,44.51,276.51,18.86,318.8,5.93,363.73,5.93,410c0,64.86,26.08,128,75.35,182.6,48.12,53.41,116.26,96.55,196.91,124.84l1.8.64,20.24,190.12a45,45,0,0,0,31.58,38.26,46.17,46.17,0,0,0,13.25,2,44.7,44.7,0,0,0,34.34-16L531,753.3l1.27-.1c125.26-5.62,241.62-44,327.89-107.89S993.85,497.69,993.85,409.94c0-46.32-13-91.25-38.57-133.53C930.48,235.5,894.87,198.62,849.62,167,756.25,101.86,632.05,66,499.89,66Z"/><path class="cls-3" d="M499.89,139.27c-59.77,0-117.63,8.16-171.89,24.16-51.29,15.16-97.08,36.57-136,63.8-72.81,50.87-113,115.83-113,182.81a175.77,175.77,0,0,0,14.09,68.25C102.69,501,117,523,135.65,543.68c39.95,44.3,97.61,80.54,166.81,104.7l45.46,15.9L366.15,834.9,495.76,681.66,529,680.18c56.48-2.55,110.74-12.4,161.29-29.25,47.91-16,90.4-37.62,126.33-64.33,34.12-25.33,60.41-53.73,78.32-84.68,17.17-29.56,25.86-60.51,25.86-91.88,0-67.08-40.17-131.94-113-182.81-38.89-27.13-84.67-48.64-136-63.8C617.53,147.33,559.67,139.27,499.89,139.27Z"/><path class="cls-2" d="M300.23,303.43c-12.08,0-23,2.54-32.64,7.63a57.57,57.57,0,0,0-31.26,52.35c0,15,4.56,27.24,13.56,36.25,8.69,8.69,22.26,15.26,41.55,20.24q15.26,3.81,22.89,7.31c5.4,2.44,7.73,4.77,8.79,6.25,1.38,2,2.12,5.09,2.12,8.91,0,6.46-2,11-6.35,14.3-4.88,3.61-12.09,5.51-21.41,5.51-8,0-14.63-1.06-19.71-3.28a91.55,91.55,0,0,1-16.64-9.43c-6-4.67-10.6-6.79-14.73-6.79A14.12,14.12,0,0,0,235,448.51a19.53,19.53,0,0,0-3.71,11.87,23.64,23.64,0,0,0,3.29,12.72,38.6,38.6,0,0,0,9.43,10l.11.11.1.1a80.21,80.21,0,0,0,24.48,12.19,95.19,95.19,0,0,0,28.72,4.24c19.29,0,35.19-5.19,47.16-15.58,12.29-10.6,18.55-24.69,18.55-41.86,0-10.7-1.91-19.71-5.62-27s-10.28-13.68-19-18.66c-8.16-4.66-19.29-8.79-33.81-12.61-8.79-2.22-15.57-4.55-20.13-6.89-3.82-1.9-6.57-4-8.06-6.25s-2-5.09-2-9c0-6.36,2-11.23,6.36-14.94,4.56-3.92,10.6-5.83,18.44-5.83,6.46,0,11.76,1,15.9,3a85.1,85.1,0,0,1,14.73,9.22c6.36,5.3,11,7.63,15.26,7.63a13.86,13.86,0,0,0,11.34-6,19.58,19.58,0,0,0,3.81-12.08c0-8.38-4.34-16.22-12.82-23.32h-.21a69.43,69.43,0,0,0-21.73-11.76,76.14,76.14,0,0,0-25.33-4.24Z"/><path class="cls-2" d="M558.5,303.43a57.1,57.1,0,0,0-33.91,10.7,61.52,61.52,0,0,0-14.73,14.95,50.23,50.23,0,0,0-13.25-15.58c-8.8-6.68-19.82-10.07-32.85-10.07A53.52,53.52,0,0,0,432.39,313a50.39,50.39,0,0,0-8.16,7,19.24,19.24,0,0,0-4.67-9.64,17.62,17.62,0,0,0-13.67-6.15,18.6,18.6,0,0,0-14.2,6.36c-3.5,3.92-5.19,9-5.19,15.05V477.76c0,6.36,1.8,11.55,5.3,15.37a18.65,18.65,0,0,0,14.09,6,18,18,0,0,0,14-6.15Q425,487.3,425,477.76v-88c0-15.26,3.18-27.34,9.43-35.93,5.83-8.05,13.57-12,23.53-12,12.18,0,16.11,5.83,17.38,7.74,2.75,4.13,6.14,12.92,6.14,31.15v97c0,6.25,1.7,11.45,5.09,15.26a18,18,0,0,0,14,6.15,19,19,0,0,0,14.09-6c3.5-3.82,5.3-9,5.3-15.37v-88c0-15.26,3.18-27.34,9.33-36,5.83-8.06,13.46-11.87,23.63-11.87,8.06,0,13.57,2.44,17.06,7.74,2.76,4.13,6.15,12.92,6.15,31.15v97c0,6.36,1.8,11.55,5.3,15.37a18.65,18.65,0,0,0,14.1,6,18,18,0,0,0,14-6.15q5.1-5.72,5.09-15.26V380.05c0-24.9-4.45-43.24-13.56-56.17-9.44-13.67-23.74-20.45-42.5-20.45Z"/><path class="cls-2" d="M705.81,303.43c-12.08,0-23,2.54-32.64,7.63a57.6,57.6,0,0,0-31.27,52.35c0,15,4.56,27.24,13.57,36.25,8.69,8.69,22.25,15.26,41.54,20.24q15.27,3.81,22.89,7.31c5.41,2.44,7.74,4.77,8.8,6.25,1.38,2,2.12,5.09,2.12,8.91,0,6.46-2,11-6.36,14.3-4.88,3.61-12.08,5.51-21.41,5.51-7.95,0-14.62-1.06-19.71-3.28a91.89,91.89,0,0,1-16.64-9.43c-6-4.67-10.6-6.79-14.73-6.79a14.09,14.09,0,0,0-11.44,5.83,19.53,19.53,0,0,0-3.71,11.87,23.72,23.72,0,0,0,3.28,12.72,39,39,0,0,0,9.43,10l.11.11.11.1a80.87,80.87,0,0,0,24.37,12.19,95.19,95.19,0,0,0,28.72,4.24c19.29,0,35.18-5.19,47.16-15.58,12.29-10.6,18.55-24.69,18.55-41.86,0-10.7-1.91-19.82-5.62-27-3.82-7.42-10.28-13.68-19-18.66-8.16-4.66-19.29-8.79-33.81-12.61-8.79-2.22-15.58-4.55-20-6.89-3.81-2-6.57-4-8-6.25s-2-5.09-2-9c0-6.36,2-11.23,6.36-14.94,4.56-3.92,10.6-5.83,18.44-5.83,6.47,0,11.77,1,15.9,3a84.36,84.36,0,0,1,14.73,9.22c6.36,5.3,11,7.63,15.26,7.63a13.85,13.85,0,0,0,11.34-6,19.59,19.59,0,0,0,3.82-12.08c0-8.38-4.35-16.22-12.83-23.32h-.21a69.27,69.27,0,0,0-21.72-11.76,76.14,76.14,0,0,0-25.33-4.24Z"/></svg>