<?xml version="1.0" encoding="utf-8"?>
<!-- Generator: Adobe Illustrator 23.1.1, SVG Export Plug-In . SVG Version: 6.00 Build 0)  -->
<svg version="1.1" id="Layer_1" xmlns="http://www.w3.org/2000/svg" xmlns:xlink="http://www.w3.org/1999/xlink" x="0px" y="0px"
	 viewBox="0 0 1000 1000" style="enable-background:new 0 0 1000 1000;" xml:space="preserve">
<style type="text/css">
	.st0{fill:url(#SVGID_1_);}
	.st1{fill:#0E925F;}
	.st2{fill:#FFFFFF;}
</style>
<title>AdvCash</title>
<linearGradient id="SVGID_1_" gradientUnits="userSpaceOnUse" x1="41.9803" y1="500" x2="958.0197" y2="500">
	<stop  offset="0" style="stop-color:#032F3B"/>
	<stop  offset="1" style="stop-color:#0F6A67"/>
</linearGradient>
<path class="st0" d="M866.6,958H133.4C82.9,958,42,917.1,42,866.6V133.4C42,82.9,82.9,42,133.4,42h733.3c50.5,0,91.4,40.9,91.4,91.4
	v733.3C958,917.1,917.1,958,866.6,958z"/>
<g>
	<g>
		<polygon class="st1" points="824.9,394.3 581.3,394.3 581.3,504.1 780.7,504.1 		"/>
	</g>
	<polygon class="st2" points="214.9,797.6 337.8,797.6 500,394.3 662.2,797.6 785.1,797.6 545.6,202.4 454.4,202.4 	"/>
	<g>
		<polygon class="st1" points="175.1,394.3 219.3,504.1 455.8,504.1 500,394.3 		"/>
	</g>
	<g>
		<polygon class="st1" points="206.6,564.4 250.8,674.3 612.6,674.3 568.4,564.4 		"/>
		<polygon class="st1" points="749.2,674.3 793.4,564.4 691.2,564.4 735.4,674.3 		"/>
	</g>
</g>
</svg>
