<svg id="Layer_1" data-name="Layer 1" xmlns="http://www.w3.org/2000/svg" viewBox="0 0 1000 1000"><defs><style>.cls-1{fill:#27346a;}.cls-2{fill:#2790c3;}.cls-3{fill:#1f264f;}</style></defs><title>PayPal</title><path class="cls-1" d="M721.54,75.4C675.24,22.63,591.54,0,484.46,0H173.69a44.49,44.49,0,0,0-43.95,37.53L.34,858.21A26.66,26.66,0,0,0,26.7,889.05H218.56l48.18-305.62L265.25,593A44.34,44.34,0,0,1,309,555.46H400.2c179.11,0,319.35-72.75,360.32-283.19q1.82-9.34,3.18-18.2h0c12.2-77.79-.08-130.73-42.16-178.67"/><path class="cls-1" d="M340.15,226.05a38.92,38.92,0,0,1,16.79-3.79H600.58c28.85,0,55.76,1.88,80.35,5.83q10.34,1.65,20.53,3.93,14.46,3.19,28.55,7.8a219.82,219.82,0,0,1,33.69,14.25c12.2-77.82-.08-130.73-42.16-178.67C675.21,22.63,591.54,0,484.46,0H173.66a44.48,44.48,0,0,0-43.92,37.53L.34,858.18A26.66,26.66,0,0,0,26.67,889H218.56l100-633.94a39,39,0,0,1,21.63-29Z"/><path class="cls-2" d="M760.52,272.27c-41,210.41-181.21,283.19-360.32,283.19H309A44.3,44.3,0,0,0,265.25,593L205.3,973a23.36,23.36,0,0,0,23,27H390.08a38.91,38.91,0,0,0,38.42-32.83l1.58-8.24,30.48-193.19,2-10.68A38.93,38.93,0,0,1,501,722.23h24.2c156.67,0,279.35-63.65,315.2-247.73,15-76.93,7.22-141.16-32.37-186.27-12-13.67-26.91-25-44.28-34.16-.94,5.94-2,12-3.18,18.2Z"/><path class="cls-3" d="M720.82,237q-9.57-2.79-19.33-4.95-10.2-2.24-20.53-3.9c-24.61-4-51.5-5.86-80.38-5.86H357a38.89,38.89,0,0,0-38.42,32.86L266.77,583.43l-1.5,9.57A44.31,44.31,0,0,1,309,555.46h91.19c179.11,0,319.35-72.75,360.32-283.19,1.21-6.23,2.24-12.26,3.18-18.2A220.73,220.73,0,0,0,730,239.85q-4.57-1.51-9.2-2.88"/></svg>