<?xml version="1.0" encoding="utf-8"?>
<!-- Generator: Adobe Illustrator 25.4.1, SVG Export Plug-In . SVG Version: 6.00 Build 0)  -->
<svg version="1.1" id="Layer_1" xmlns="http://www.w3.org/2000/svg" xmlns:xlink="http://www.w3.org/1999/xlink" x="0px" y="0px"
	 viewBox="0 0 1000 1000" style="enable-background:new 0 0 1000 1000;" xml:space="preserve">
<style type="text/css">
	.st0{fill:#6DB7A8;}
</style>
<g>
	<path class="st0" d="M672.8,708.9L508.1,563c-0.1-0.1-7.3-6.3-14.2,0.3L330.8,719.1c-33.5,32.4-85.6,41.2-133.2,41.1L393.4,956
		c58.6,58.6,154.5,58.6,213.1,0l194.6-194.6c-22.4-1.2-41.6-5.5-57.1-10.8C702.2,736.6,677.4,713.4,672.8,708.9z"/>
	<path class="st0" d="M956,393.4l-119-119c-84.9-10.6-133,37.1-135.5,39.7l-1.1,1.1L535.2,461.6c-8.9,7.9-21.4,13-34.5,13
		c-11.9,0-24.3-4.2-34.9-14.3L302.6,304.4c-31.1-30.1-91.9-32.8-141.6-28l-117,117c-58.6,58.6-58.6,154.5,0,213.1l110.2,110.2
		c50.9,5.7,115.9,4.3,148.3-27.1l163.3-155.9c22.2-21.2,52.3-16.5,69.4-1.3L701,679.3l0.6,0.6c2.6,2.6,53.2,52.9,142.4,38.7
		L956,606.6C1014.7,547.9,1014.7,452.1,956,393.4z"/>
	<path class="st0" d="M494,430.7c6.9,6.6,14.1,0.4,14.2,0.3l164.7-145.9c4.6-4.5,29.3-27.7,71.2-41.8c14.2-4.8,31.5-8.9,51.5-10.4
		l-189-189c-58.6-58.6-154.5-58.6-213.1,0L203.6,233.8c45.9,0.6,95.2,10.1,127.3,41.2L494,430.7z"/>
</g>
</svg>
